<?xml version="1.0" encoding="utf-8" standalone="no"?>
<!DOCTYPE svg PUBLIC "-//W3C//DTD SVG 1.1//EN"
  "http://www.w3.org/Graphics/SVG/1.1/DTD/svg11.dtd">
<svg xmlns:xlink="http://www.w3.org/1999/xlink" width="709.171494pt" height="206.202969pt" viewBox="0 0 709.171494 206.202969" xmlns="http://www.w3.org/2000/svg" version="1.1">
 <metadata>
  <rdf:RDF xmlns:dc="http://purl.org/dc/elements/1.1/" xmlns:cc="http://creativecommons.org/ns#" xmlns:rdf="http://www.w3.org/1999/02/22-rdf-syntax-ns#">
   <cc:Work>
    <dc:type rdf:resource="http://purl.org/dc/dcmitype/StillImage"/>
    <dc:date>2023-03-14T15:25:10.891549</dc:date>
    <dc:format>image/svg+xml</dc:format>
    <dc:creator>
     <cc:Agent>
      <dc:title>Matplotlib v3.5.1, https://matplotlib.org/</dc:title>
     </cc:Agent>
    </dc:creator>
   </cc:Work>
  </rdf:RDF>
 </metadata>
 <defs>
  <style type="text/css">*{stroke-linejoin: round; stroke-linecap: butt}</style>
 </defs>
 <g id="figure_1">
  <g id="patch_1">
   <path d="M 0 206.202969 
L 709.171494 206.202969 
L 709.171494 0 
L 0 0 
z
" style="fill: #ffffff"/>
  </g>
  <g id="axes_1">
   <g id="patch_2">
    <path d="M 50.312344 164.46875 
L 363.115629 164.46875 
L 363.115629 21.935625 
L 50.312344 21.935625 
z
" style="fill: #ffffff"/>
   </g>
   <g id="matplotlib.axis_1">
    <g id="xtick_1">
     <g id="line2d_1">
      <defs>
       <path id="m97b86d2832" d="M 0 0 
L 0 6 
" style="stroke: #262626; stroke-width: 1.25"/>
      </defs>
      <g>
       <use xlink:href="#m97b86d2832" x="75.90534" y="164.46875" style="fill: #262626; stroke: #262626; stroke-width: 1.25"/>
      </g>
     </g>
     <g id="text_1">
      <!-- 20 -->
      <g style="fill: #262626" transform="translate(69.788309 181.842344)scale(0.11 -0.11)">
       <defs>
        <path id="ArialMT-32" d="M 3222 541 
L 3222 0 
L 194 0 
Q 188 203 259 391 
Q 375 700 629 1000 
Q 884 1300 1366 1694 
Q 2113 2306 2375 2664 
Q 2638 3022 2638 3341 
Q 2638 3675 2398 3904 
Q 2159 4134 1775 4134 
Q 1369 4134 1125 3890 
Q 881 3647 878 3216 
L 300 3275 
Q 359 3922 746 4261 
Q 1134 4600 1788 4600 
Q 2447 4600 2831 4234 
Q 3216 3869 3216 3328 
Q 3216 3053 3103 2787 
Q 2991 2522 2730 2228 
Q 2469 1934 1863 1422 
Q 1356 997 1212 845 
Q 1069 694 975 541 
L 3222 541 
z
" transform="scale(0.015625)"/>
        <path id="ArialMT-30" d="M 266 2259 
Q 266 3072 433 3567 
Q 600 4063 929 4331 
Q 1259 4600 1759 4600 
Q 2128 4600 2406 4451 
Q 2684 4303 2865 4023 
Q 3047 3744 3150 3342 
Q 3253 2941 3253 2259 
Q 3253 1453 3087 958 
Q 2922 463 2592 192 
Q 2263 -78 1759 -78 
Q 1097 -78 719 397 
Q 266 969 266 2259 
z
M 844 2259 
Q 844 1131 1108 757 
Q 1372 384 1759 384 
Q 2147 384 2411 759 
Q 2675 1134 2675 2259 
Q 2675 3391 2411 3762 
Q 2147 4134 1753 4134 
Q 1366 4134 1134 3806 
Q 844 3388 844 2259 
z
" transform="scale(0.015625)"/>
       </defs>
       <use xlink:href="#ArialMT-32"/>
       <use xlink:href="#ArialMT-30" x="55.615234"/>
      </g>
     </g>
    </g>
    <g id="xtick_2">
     <g id="line2d_2">
      <g>
       <use xlink:href="#m97b86d2832" x="132.778664" y="164.46875" style="fill: #262626; stroke: #262626; stroke-width: 1.25"/>
      </g>
     </g>
     <g id="text_2">
      <!-- 30 -->
      <g style="fill: #262626" transform="translate(126.661633 181.842344)scale(0.11 -0.11)">
       <defs>
        <path id="ArialMT-33" d="M 269 1209 
L 831 1284 
Q 928 806 1161 595 
Q 1394 384 1728 384 
Q 2125 384 2398 659 
Q 2672 934 2672 1341 
Q 2672 1728 2419 1979 
Q 2166 2231 1775 2231 
Q 1616 2231 1378 2169 
L 1441 2663 
Q 1497 2656 1531 2656 
Q 1891 2656 2178 2843 
Q 2466 3031 2466 3422 
Q 2466 3731 2256 3934 
Q 2047 4138 1716 4138 
Q 1388 4138 1169 3931 
Q 950 3725 888 3313 
L 325 3413 
Q 428 3978 793 4289 
Q 1159 4600 1703 4600 
Q 2078 4600 2393 4439 
Q 2709 4278 2876 4000 
Q 3044 3722 3044 3409 
Q 3044 3113 2884 2869 
Q 2725 2625 2413 2481 
Q 2819 2388 3044 2092 
Q 3269 1797 3269 1353 
Q 3269 753 2831 336 
Q 2394 -81 1725 -81 
Q 1122 -81 723 278 
Q 325 638 269 1209 
z
" transform="scale(0.015625)"/>
       </defs>
       <use xlink:href="#ArialMT-33"/>
       <use xlink:href="#ArialMT-30" x="55.615234"/>
      </g>
     </g>
    </g>
    <g id="xtick_3">
     <g id="line2d_3">
      <g>
       <use xlink:href="#m97b86d2832" x="189.651989" y="164.46875" style="fill: #262626; stroke: #262626; stroke-width: 1.25"/>
      </g>
     </g>
     <g id="text_3">
      <!-- 40 -->
      <g style="fill: #262626" transform="translate(183.534958 181.842344)scale(0.11 -0.11)">
       <defs>
        <path id="ArialMT-34" d="M 2069 0 
L 2069 1097 
L 81 1097 
L 81 1613 
L 2172 4581 
L 2631 4581 
L 2631 1613 
L 3250 1613 
L 3250 1097 
L 2631 1097 
L 2631 0 
L 2069 0 
z
M 2069 1613 
L 2069 3678 
L 634 1613 
L 2069 1613 
z
" transform="scale(0.015625)"/>
       </defs>
       <use xlink:href="#ArialMT-34"/>
       <use xlink:href="#ArialMT-30" x="55.615234"/>
      </g>
     </g>
    </g>
    <g id="xtick_4">
     <g id="line2d_4">
      <g>
       <use xlink:href="#m97b86d2832" x="246.525314" y="164.46875" style="fill: #262626; stroke: #262626; stroke-width: 1.25"/>
      </g>
     </g>
     <g id="text_4">
      <!-- 50 -->
      <g style="fill: #262626" transform="translate(240.408282 181.842344)scale(0.11 -0.11)">
       <defs>
        <path id="ArialMT-35" d="M 266 1200 
L 856 1250 
Q 922 819 1161 601 
Q 1400 384 1738 384 
Q 2144 384 2425 690 
Q 2706 997 2706 1503 
Q 2706 1984 2436 2262 
Q 2166 2541 1728 2541 
Q 1456 2541 1237 2417 
Q 1019 2294 894 2097 
L 366 2166 
L 809 4519 
L 3088 4519 
L 3088 3981 
L 1259 3981 
L 1013 2750 
Q 1425 3038 1878 3038 
Q 2478 3038 2890 2622 
Q 3303 2206 3303 1553 
Q 3303 931 2941 478 
Q 2500 -78 1738 -78 
Q 1113 -78 717 272 
Q 322 622 266 1200 
z
" transform="scale(0.015625)"/>
       </defs>
       <use xlink:href="#ArialMT-35"/>
       <use xlink:href="#ArialMT-30" x="55.615234"/>
      </g>
     </g>
    </g>
    <g id="xtick_5">
     <g id="line2d_5">
      <g>
       <use xlink:href="#m97b86d2832" x="303.398638" y="164.46875" style="fill: #262626; stroke: #262626; stroke-width: 1.25"/>
      </g>
     </g>
     <g id="text_5">
      <!-- 60 -->
      <g style="fill: #262626" transform="translate(297.281607 181.842344)scale(0.11 -0.11)">
       <defs>
        <path id="ArialMT-36" d="M 3184 3459 
L 2625 3416 
Q 2550 3747 2413 3897 
Q 2184 4138 1850 4138 
Q 1581 4138 1378 3988 
Q 1113 3794 959 3422 
Q 806 3050 800 2363 
Q 1003 2672 1297 2822 
Q 1591 2972 1913 2972 
Q 2475 2972 2870 2558 
Q 3266 2144 3266 1488 
Q 3266 1056 3080 686 
Q 2894 316 2569 119 
Q 2244 -78 1831 -78 
Q 1128 -78 684 439 
Q 241 956 241 2144 
Q 241 3472 731 4075 
Q 1159 4600 1884 4600 
Q 2425 4600 2770 4297 
Q 3116 3994 3184 3459 
z
M 888 1484 
Q 888 1194 1011 928 
Q 1134 663 1356 523 
Q 1578 384 1822 384 
Q 2178 384 2434 671 
Q 2691 959 2691 1453 
Q 2691 1928 2437 2201 
Q 2184 2475 1800 2475 
Q 1419 2475 1153 2201 
Q 888 1928 888 1484 
z
" transform="scale(0.015625)"/>
       </defs>
       <use xlink:href="#ArialMT-36"/>
       <use xlink:href="#ArialMT-30" x="55.615234"/>
      </g>
     </g>
    </g>
    <g id="xtick_6">
     <g id="line2d_6">
      <g>
       <use xlink:href="#m97b86d2832" x="360.271963" y="164.46875" style="fill: #262626; stroke: #262626; stroke-width: 1.25"/>
      </g>
     </g>
     <g id="text_6">
      <!-- 70 -->
      <g style="fill: #262626" transform="translate(354.154931 181.842344)scale(0.11 -0.11)">
       <defs>
        <path id="ArialMT-37" d="M 303 3981 
L 303 4522 
L 3269 4522 
L 3269 4084 
Q 2831 3619 2401 2847 
Q 1972 2075 1738 1259 
Q 1569 684 1522 0 
L 944 0 
Q 953 541 1156 1306 
Q 1359 2072 1739 2783 
Q 2119 3494 2547 3981 
L 303 3981 
z
" transform="scale(0.015625)"/>
       </defs>
       <use xlink:href="#ArialMT-37"/>
       <use xlink:href="#ArialMT-30" x="55.615234"/>
      </g>
     </g>
    </g>
    <g id="text_7">
     <!-- age -->
     <g style="fill: #262626" transform="translate(196.704299 196.477344)scale(0.12 -0.12)">
      <defs>
       <path id="ArialMT-61" d="M 2588 409 
Q 2275 144 1986 34 
Q 1697 -75 1366 -75 
Q 819 -75 525 192 
Q 231 459 231 875 
Q 231 1119 342 1320 
Q 453 1522 633 1644 
Q 813 1766 1038 1828 
Q 1203 1872 1538 1913 
Q 2219 1994 2541 2106 
Q 2544 2222 2544 2253 
Q 2544 2597 2384 2738 
Q 2169 2928 1744 2928 
Q 1347 2928 1158 2789 
Q 969 2650 878 2297 
L 328 2372 
Q 403 2725 575 2942 
Q 747 3159 1072 3276 
Q 1397 3394 1825 3394 
Q 2250 3394 2515 3294 
Q 2781 3194 2906 3042 
Q 3031 2891 3081 2659 
Q 3109 2516 3109 2141 
L 3109 1391 
Q 3109 606 3145 398 
Q 3181 191 3288 0 
L 2700 0 
Q 2613 175 2588 409 
z
M 2541 1666 
Q 2234 1541 1622 1453 
Q 1275 1403 1131 1340 
Q 988 1278 909 1158 
Q 831 1038 831 891 
Q 831 666 1001 516 
Q 1172 366 1500 366 
Q 1825 366 2078 508 
Q 2331 650 2450 897 
Q 2541 1088 2541 1459 
L 2541 1666 
z
" transform="scale(0.015625)"/>
       <path id="ArialMT-67" d="M 319 -275 
L 866 -356 
Q 900 -609 1056 -725 
Q 1266 -881 1628 -881 
Q 2019 -881 2231 -725 
Q 2444 -569 2519 -288 
Q 2563 -116 2559 434 
Q 2191 0 1641 0 
Q 956 0 581 494 
Q 206 988 206 1678 
Q 206 2153 378 2554 
Q 550 2956 876 3175 
Q 1203 3394 1644 3394 
Q 2231 3394 2613 2919 
L 2613 3319 
L 3131 3319 
L 3131 450 
Q 3131 -325 2973 -648 
Q 2816 -972 2473 -1159 
Q 2131 -1347 1631 -1347 
Q 1038 -1347 672 -1080 
Q 306 -813 319 -275 
z
M 784 1719 
Q 784 1066 1043 766 
Q 1303 466 1694 466 
Q 2081 466 2343 764 
Q 2606 1063 2606 1700 
Q 2606 2309 2336 2618 
Q 2066 2928 1684 2928 
Q 1309 2928 1046 2623 
Q 784 2319 784 1719 
z
" transform="scale(0.015625)"/>
       <path id="ArialMT-65" d="M 2694 1069 
L 3275 997 
Q 3138 488 2766 206 
Q 2394 -75 1816 -75 
Q 1088 -75 661 373 
Q 234 822 234 1631 
Q 234 2469 665 2931 
Q 1097 3394 1784 3394 
Q 2450 3394 2872 2941 
Q 3294 2488 3294 1666 
Q 3294 1616 3291 1516 
L 816 1516 
Q 847 969 1125 678 
Q 1403 388 1819 388 
Q 2128 388 2347 550 
Q 2566 713 2694 1069 
z
M 847 1978 
L 2700 1978 
Q 2663 2397 2488 2606 
Q 2219 2931 1791 2931 
Q 1403 2931 1139 2672 
Q 875 2413 847 1978 
z
" transform="scale(0.015625)"/>
      </defs>
      <use xlink:href="#ArialMT-61"/>
      <use xlink:href="#ArialMT-67" x="55.615234"/>
      <use xlink:href="#ArialMT-65" x="111.230469"/>
     </g>
    </g>
   </g>
   <g id="matplotlib.axis_2">
    <g id="ytick_1">
     <g id="line2d_7">
      <defs>
       <path id="m26ea45029b" d="M 0 0 
L -6 0 
" style="stroke: #262626; stroke-width: 1.25"/>
      </defs>
      <g>
       <use xlink:href="#m26ea45029b" x="50.312344" y="164.46875" style="fill: #262626; stroke: #262626; stroke-width: 1.25"/>
      </g>
     </g>
     <g id="text_8">
      <!-- 0 -->
      <g style="fill: #262626" transform="translate(34.695313 168.405547)scale(0.11 -0.11)">
       <use xlink:href="#ArialMT-30"/>
      </g>
     </g>
    </g>
    <g id="ytick_2">
     <g id="line2d_8">
      <g>
       <use xlink:href="#m26ea45029b" x="50.312344" y="130.78492" style="fill: #262626; stroke: #262626; stroke-width: 1.25"/>
      </g>
     </g>
     <g id="text_9">
      <!-- 100 -->
      <g style="fill: #262626" transform="translate(22.46125 134.721717)scale(0.11 -0.11)">
       <defs>
        <path id="ArialMT-31" d="M 2384 0 
L 1822 0 
L 1822 3584 
Q 1619 3391 1289 3197 
Q 959 3003 697 2906 
L 697 3450 
Q 1169 3672 1522 3987 
Q 1875 4303 2022 4600 
L 2384 4600 
L 2384 0 
z
" transform="scale(0.015625)"/>
       </defs>
       <use xlink:href="#ArialMT-31"/>
       <use xlink:href="#ArialMT-30" x="55.615234"/>
       <use xlink:href="#ArialMT-30" x="111.230469"/>
      </g>
     </g>
    </g>
    <g id="ytick_3">
     <g id="line2d_9">
      <g>
       <use xlink:href="#m26ea45029b" x="50.312344" y="97.101091" style="fill: #262626; stroke: #262626; stroke-width: 1.25"/>
      </g>
     </g>
     <g id="text_10">
      <!-- 200 -->
      <g style="fill: #262626" transform="translate(22.46125 101.037888)scale(0.11 -0.11)">
       <use xlink:href="#ArialMT-32"/>
       <use xlink:href="#ArialMT-30" x="55.615234"/>
       <use xlink:href="#ArialMT-30" x="111.230469"/>
      </g>
     </g>
    </g>
    <g id="ytick_4">
     <g id="line2d_10">
      <g>
       <use xlink:href="#m26ea45029b" x="50.312344" y="63.417261" style="fill: #262626; stroke: #262626; stroke-width: 1.25"/>
      </g>
     </g>
     <g id="text_11">
      <!-- 300 -->
      <g style="fill: #262626" transform="translate(22.46125 67.354058)scale(0.11 -0.11)">
       <use xlink:href="#ArialMT-33"/>
       <use xlink:href="#ArialMT-30" x="55.615234"/>
       <use xlink:href="#ArialMT-30" x="111.230469"/>
      </g>
     </g>
    </g>
    <g id="ytick_5">
     <g id="line2d_11">
      <g>
       <use xlink:href="#m26ea45029b" x="50.312344" y="29.733432" style="fill: #262626; stroke: #262626; stroke-width: 1.25"/>
      </g>
     </g>
     <g id="text_12">
      <!-- 400 -->
      <g style="fill: #262626" transform="translate(22.46125 33.670228)scale(0.11 -0.11)">
       <use xlink:href="#ArialMT-34"/>
       <use xlink:href="#ArialMT-30" x="55.615234"/>
       <use xlink:href="#ArialMT-30" x="111.230469"/>
      </g>
     </g>
    </g>
    <g id="text_13">
     <!-- Number of users in age group -->
     <g style="fill: #262626" transform="translate(15.935625 172.572812)rotate(-90)scale(0.12 -0.12)">
      <defs>
       <path id="ArialMT-4e" d="M 488 0 
L 488 4581 
L 1109 4581 
L 3516 984 
L 3516 4581 
L 4097 4581 
L 4097 0 
L 3475 0 
L 1069 3600 
L 1069 0 
L 488 0 
z
" transform="scale(0.015625)"/>
       <path id="ArialMT-75" d="M 2597 0 
L 2597 488 
Q 2209 -75 1544 -75 
Q 1250 -75 995 37 
Q 741 150 617 320 
Q 494 491 444 738 
Q 409 903 409 1263 
L 409 3319 
L 972 3319 
L 972 1478 
Q 972 1038 1006 884 
Q 1059 663 1231 536 
Q 1403 409 1656 409 
Q 1909 409 2131 539 
Q 2353 669 2445 892 
Q 2538 1116 2538 1541 
L 2538 3319 
L 3100 3319 
L 3100 0 
L 2597 0 
z
" transform="scale(0.015625)"/>
       <path id="ArialMT-6d" d="M 422 0 
L 422 3319 
L 925 3319 
L 925 2853 
Q 1081 3097 1340 3245 
Q 1600 3394 1931 3394 
Q 2300 3394 2536 3241 
Q 2772 3088 2869 2813 
Q 3263 3394 3894 3394 
Q 4388 3394 4653 3120 
Q 4919 2847 4919 2278 
L 4919 0 
L 4359 0 
L 4359 2091 
Q 4359 2428 4304 2576 
Q 4250 2725 4106 2815 
Q 3963 2906 3769 2906 
Q 3419 2906 3187 2673 
Q 2956 2441 2956 1928 
L 2956 0 
L 2394 0 
L 2394 2156 
Q 2394 2531 2256 2718 
Q 2119 2906 1806 2906 
Q 1569 2906 1367 2781 
Q 1166 2656 1075 2415 
Q 984 2175 984 1722 
L 984 0 
L 422 0 
z
" transform="scale(0.015625)"/>
       <path id="ArialMT-62" d="M 941 0 
L 419 0 
L 419 4581 
L 981 4581 
L 981 2947 
Q 1338 3394 1891 3394 
Q 2197 3394 2470 3270 
Q 2744 3147 2920 2923 
Q 3097 2700 3197 2384 
Q 3297 2069 3297 1709 
Q 3297 856 2875 390 
Q 2453 -75 1863 -75 
Q 1275 -75 941 416 
L 941 0 
z
M 934 1684 
Q 934 1088 1097 822 
Q 1363 388 1816 388 
Q 2184 388 2453 708 
Q 2722 1028 2722 1663 
Q 2722 2313 2464 2622 
Q 2206 2931 1841 2931 
Q 1472 2931 1203 2611 
Q 934 2291 934 1684 
z
" transform="scale(0.015625)"/>
       <path id="ArialMT-72" d="M 416 0 
L 416 3319 
L 922 3319 
L 922 2816 
Q 1116 3169 1280 3281 
Q 1444 3394 1641 3394 
Q 1925 3394 2219 3213 
L 2025 2691 
Q 1819 2813 1613 2813 
Q 1428 2813 1281 2702 
Q 1134 2591 1072 2394 
Q 978 2094 978 1738 
L 978 0 
L 416 0 
z
" transform="scale(0.015625)"/>
       <path id="ArialMT-20" transform="scale(0.015625)"/>
       <path id="ArialMT-6f" d="M 213 1659 
Q 213 2581 725 3025 
Q 1153 3394 1769 3394 
Q 2453 3394 2887 2945 
Q 3322 2497 3322 1706 
Q 3322 1066 3130 698 
Q 2938 331 2570 128 
Q 2203 -75 1769 -75 
Q 1072 -75 642 372 
Q 213 819 213 1659 
z
M 791 1659 
Q 791 1022 1069 705 
Q 1347 388 1769 388 
Q 2188 388 2466 706 
Q 2744 1025 2744 1678 
Q 2744 2294 2464 2611 
Q 2184 2928 1769 2928 
Q 1347 2928 1069 2612 
Q 791 2297 791 1659 
z
" transform="scale(0.015625)"/>
       <path id="ArialMT-66" d="M 556 0 
L 556 2881 
L 59 2881 
L 59 3319 
L 556 3319 
L 556 3672 
Q 556 4006 616 4169 
Q 697 4388 901 4523 
Q 1106 4659 1475 4659 
Q 1713 4659 2000 4603 
L 1916 4113 
Q 1741 4144 1584 4144 
Q 1328 4144 1222 4034 
Q 1116 3925 1116 3625 
L 1116 3319 
L 1763 3319 
L 1763 2881 
L 1116 2881 
L 1116 0 
L 556 0 
z
" transform="scale(0.015625)"/>
       <path id="ArialMT-73" d="M 197 991 
L 753 1078 
Q 800 744 1014 566 
Q 1228 388 1613 388 
Q 2000 388 2187 545 
Q 2375 703 2375 916 
Q 2375 1106 2209 1216 
Q 2094 1291 1634 1406 
Q 1016 1563 777 1677 
Q 538 1791 414 1992 
Q 291 2194 291 2438 
Q 291 2659 392 2848 
Q 494 3038 669 3163 
Q 800 3259 1026 3326 
Q 1253 3394 1513 3394 
Q 1903 3394 2198 3281 
Q 2494 3169 2634 2976 
Q 2775 2784 2828 2463 
L 2278 2388 
Q 2241 2644 2061 2787 
Q 1881 2931 1553 2931 
Q 1166 2931 1000 2803 
Q 834 2675 834 2503 
Q 834 2394 903 2306 
Q 972 2216 1119 2156 
Q 1203 2125 1616 2013 
Q 2213 1853 2448 1751 
Q 2684 1650 2818 1456 
Q 2953 1263 2953 975 
Q 2953 694 2789 445 
Q 2625 197 2315 61 
Q 2006 -75 1616 -75 
Q 969 -75 630 194 
Q 291 463 197 991 
z
" transform="scale(0.015625)"/>
       <path id="ArialMT-69" d="M 425 3934 
L 425 4581 
L 988 4581 
L 988 3934 
L 425 3934 
z
M 425 0 
L 425 3319 
L 988 3319 
L 988 0 
L 425 0 
z
" transform="scale(0.015625)"/>
       <path id="ArialMT-6e" d="M 422 0 
L 422 3319 
L 928 3319 
L 928 2847 
Q 1294 3394 1984 3394 
Q 2284 3394 2536 3286 
Q 2788 3178 2913 3003 
Q 3038 2828 3088 2588 
Q 3119 2431 3119 2041 
L 3119 0 
L 2556 0 
L 2556 2019 
Q 2556 2363 2490 2533 
Q 2425 2703 2258 2804 
Q 2091 2906 1866 2906 
Q 1506 2906 1245 2678 
Q 984 2450 984 1813 
L 984 0 
L 422 0 
z
" transform="scale(0.015625)"/>
       <path id="ArialMT-70" d="M 422 -1272 
L 422 3319 
L 934 3319 
L 934 2888 
Q 1116 3141 1344 3267 
Q 1572 3394 1897 3394 
Q 2322 3394 2647 3175 
Q 2972 2956 3137 2557 
Q 3303 2159 3303 1684 
Q 3303 1175 3120 767 
Q 2938 359 2589 142 
Q 2241 -75 1856 -75 
Q 1575 -75 1351 44 
Q 1128 163 984 344 
L 984 -1272 
L 422 -1272 
z
M 931 1641 
Q 931 1000 1190 694 
Q 1450 388 1819 388 
Q 2194 388 2461 705 
Q 2728 1022 2728 1688 
Q 2728 2322 2467 2637 
Q 2206 2953 1844 2953 
Q 1484 2953 1207 2617 
Q 931 2281 931 1641 
z
" transform="scale(0.015625)"/>
      </defs>
      <use xlink:href="#ArialMT-4e"/>
      <use xlink:href="#ArialMT-75" x="72.216797"/>
      <use xlink:href="#ArialMT-6d" x="127.832031"/>
      <use xlink:href="#ArialMT-62" x="211.132812"/>
      <use xlink:href="#ArialMT-65" x="266.748047"/>
      <use xlink:href="#ArialMT-72" x="322.363281"/>
      <use xlink:href="#ArialMT-20" x="355.664062"/>
      <use xlink:href="#ArialMT-6f" x="383.447266"/>
      <use xlink:href="#ArialMT-66" x="439.0625"/>
      <use xlink:href="#ArialMT-20" x="466.845703"/>
      <use xlink:href="#ArialMT-75" x="494.628906"/>
      <use xlink:href="#ArialMT-73" x="550.244141"/>
      <use xlink:href="#ArialMT-65" x="600.244141"/>
      <use xlink:href="#ArialMT-72" x="655.859375"/>
      <use xlink:href="#ArialMT-73" x="689.160156"/>
      <use xlink:href="#ArialMT-20" x="739.160156"/>
      <use xlink:href="#ArialMT-69" x="766.943359"/>
      <use xlink:href="#ArialMT-6e" x="789.160156"/>
      <use xlink:href="#ArialMT-20" x="844.775391"/>
      <use xlink:href="#ArialMT-61" x="872.558594"/>
      <use xlink:href="#ArialMT-67" x="928.173828"/>
      <use xlink:href="#ArialMT-65" x="983.789062"/>
      <use xlink:href="#ArialMT-20" x="1039.404297"/>
      <use xlink:href="#ArialMT-67" x="1067.1875"/>
      <use xlink:href="#ArialMT-72" x="1122.802734"/>
      <use xlink:href="#ArialMT-6f" x="1156.103516"/>
      <use xlink:href="#ArialMT-75" x="1211.71875"/>
      <use xlink:href="#ArialMT-70" x="1267.333984"/>
     </g>
    </g>
   </g>
   <g id="patch_3">
    <path d="M 64.530675 164.46875 
L 70.218007 164.46875 
L 70.218007 156.047793 
L 64.530675 156.047793 
z
" clip-path="url(#pe0b3f9a31f)" style="fill: #0000ff; fill-opacity: 0.75; stroke: #ffffff; stroke-width: 0.461157; stroke-linejoin: miter"/>
   </g>
   <g id="patch_4">
    <path d="M 70.218007 164.46875 
L 75.90534 164.46875 
L 75.90534 144.932129 
L 70.218007 144.932129 
z
" clip-path="url(#pe0b3f9a31f)" style="fill: #0000ff; fill-opacity: 0.75; stroke: #ffffff; stroke-width: 0.461157; stroke-linejoin: miter"/>
   </g>
   <g id="patch_5">
    <path d="M 75.90534 164.46875 
L 81.592672 164.46875 
L 81.592672 132.80595 
L 75.90534 132.80595 
z
" clip-path="url(#pe0b3f9a31f)" style="fill: #0000ff; fill-opacity: 0.75; stroke: #ffffff; stroke-width: 0.461157; stroke-linejoin: miter"/>
   </g>
   <g id="patch_6">
    <path d="M 81.592672 164.46875 
L 87.280005 164.46875 
L 87.280005 124.721831 
L 81.592672 124.721831 
z
" clip-path="url(#pe0b3f9a31f)" style="fill: #0000ff; fill-opacity: 0.75; stroke: #ffffff; stroke-width: 0.461157; stroke-linejoin: miter"/>
   </g>
   <g id="patch_7">
    <path d="M 87.280005 164.46875 
L 92.967337 164.46875 
L 92.967337 101.816827 
L 87.280005 101.816827 
z
" clip-path="url(#pe0b3f9a31f)" style="fill: #0000ff; fill-opacity: 0.75; stroke: #ffffff; stroke-width: 0.461157; stroke-linejoin: miter"/>
   </g>
   <g id="patch_8">
    <path d="M 92.967337 164.46875 
L 98.65467 164.46875 
L 98.65467 79.585499 
L 92.967337 79.585499 
z
" clip-path="url(#pe0b3f9a31f)" style="fill: #0000ff; fill-opacity: 0.75; stroke: #ffffff; stroke-width: 0.461157; stroke-linejoin: miter"/>
   </g>
   <g id="patch_9">
    <path d="M 98.65467 164.46875 
L 104.342002 164.46875 
L 104.342002 48.596376 
L 98.65467 48.596376 
z
" clip-path="url(#pe0b3f9a31f)" style="fill: #0000ff; fill-opacity: 0.75; stroke: #ffffff; stroke-width: 0.461157; stroke-linejoin: miter"/>
   </g>
   <g id="patch_10">
    <path d="M 104.342002 164.46875 
L 110.029335 164.46875 
L 110.029335 32.428138 
L 104.342002 32.428138 
z
" clip-path="url(#pe0b3f9a31f)" style="fill: #0000ff; fill-opacity: 0.75; stroke: #ffffff; stroke-width: 0.461157; stroke-linejoin: miter"/>
   </g>
   <g id="patch_11">
    <path d="M 110.029335 164.46875 
L 115.716667 164.46875 
L 115.716667 33.775491 
L 110.029335 33.775491 
z
" clip-path="url(#pe0b3f9a31f)" style="fill: #0000ff; fill-opacity: 0.75; stroke: #ffffff; stroke-width: 0.461157; stroke-linejoin: miter"/>
   </g>
   <g id="patch_12">
    <path d="M 115.716667 164.46875 
L 121.403999 164.46875 
L 121.403999 28.722917 
L 115.716667 28.722917 
z
" clip-path="url(#pe0b3f9a31f)" style="fill: #0000ff; fill-opacity: 0.75; stroke: #ffffff; stroke-width: 0.461157; stroke-linejoin: miter"/>
   </g>
   <g id="patch_13">
    <path d="M 121.403999 164.46875 
L 127.091332 164.46875 
L 127.091332 42.533287 
L 121.403999 42.533287 
z
" clip-path="url(#pe0b3f9a31f)" style="fill: #0000ff; fill-opacity: 0.75; stroke: #ffffff; stroke-width: 0.461157; stroke-linejoin: miter"/>
   </g>
   <g id="patch_14">
    <path d="M 127.091332 164.46875 
L 132.778664 164.46875 
L 132.778664 50.954244 
L 127.091332 50.954244 
z
" clip-path="url(#pe0b3f9a31f)" style="fill: #0000ff; fill-opacity: 0.75; stroke: #ffffff; stroke-width: 0.461157; stroke-linejoin: miter"/>
   </g>
   <g id="patch_15">
    <path d="M 132.778664 164.46875 
L 138.465997 164.46875 
L 138.465997 53.312112 
L 132.778664 53.312112 
z
" clip-path="url(#pe0b3f9a31f)" style="fill: #0000ff; fill-opacity: 0.75; stroke: #ffffff; stroke-width: 0.461157; stroke-linejoin: miter"/>
   </g>
   <g id="patch_16">
    <path d="M 138.465997 164.46875 
L 144.153329 164.46875 
L 144.153329 62.743585 
L 138.465997 62.743585 
z
" clip-path="url(#pe0b3f9a31f)" style="fill: #0000ff; fill-opacity: 0.75; stroke: #ffffff; stroke-width: 0.461157; stroke-linejoin: miter"/>
   </g>
   <g id="patch_17">
    <path d="M 144.153329 164.46875 
L 149.840662 164.46875 
L 149.840662 69.143512 
L 144.153329 69.143512 
z
" clip-path="url(#pe0b3f9a31f)" style="fill: #0000ff; fill-opacity: 0.75; stroke: #ffffff; stroke-width: 0.461157; stroke-linejoin: miter"/>
   </g>
   <g id="patch_18">
    <path d="M 149.840662 164.46875 
L 155.527994 164.46875 
L 155.527994 95.080061 
L 149.840662 95.080061 
z
" clip-path="url(#pe0b3f9a31f)" style="fill: #0000ff; fill-opacity: 0.75; stroke: #ffffff; stroke-width: 0.461157; stroke-linejoin: miter"/>
   </g>
   <g id="patch_19">
    <path d="M 155.527994 164.46875 
L 161.215327 164.46875 
L 161.215327 102.490504 
L 155.527994 102.490504 
z
" clip-path="url(#pe0b3f9a31f)" style="fill: #0000ff; fill-opacity: 0.75; stroke: #ffffff; stroke-width: 0.461157; stroke-linejoin: miter"/>
   </g>
   <g id="patch_20">
    <path d="M 161.215327 164.46875 
L 166.902659 164.46875 
L 166.902659 107.879916 
L 161.215327 107.879916 
z
" clip-path="url(#pe0b3f9a31f)" style="fill: #0000ff; fill-opacity: 0.75; stroke: #ffffff; stroke-width: 0.461157; stroke-linejoin: miter"/>
   </g>
   <g id="patch_21">
    <path d="M 166.902659 164.46875 
L 172.589992 164.46875 
L 172.589992 116.300874 
L 166.902659 116.300874 
z
" clip-path="url(#pe0b3f9a31f)" style="fill: #0000ff; fill-opacity: 0.75; stroke: #ffffff; stroke-width: 0.461157; stroke-linejoin: miter"/>
   </g>
   <g id="patch_22">
    <path d="M 172.589992 164.46875 
L 178.277324 164.46875 
L 178.277324 113.943006 
L 172.589992 113.943006 
z
" clip-path="url(#pe0b3f9a31f)" style="fill: #0000ff; fill-opacity: 0.75; stroke: #ffffff; stroke-width: 0.461157; stroke-linejoin: miter"/>
   </g>
   <g id="patch_23">
    <path d="M 178.277324 164.46875 
L 183.964656 164.46875 
L 183.964656 121.353448 
L 178.277324 121.353448 
z
" clip-path="url(#pe0b3f9a31f)" style="fill: #0000ff; fill-opacity: 0.75; stroke: #ffffff; stroke-width: 0.461157; stroke-linejoin: miter"/>
   </g>
   <g id="patch_24">
    <path d="M 183.964656 164.46875 
L 189.651989 164.46875 
L 189.651989 127.753376 
L 183.964656 127.753376 
z
" clip-path="url(#pe0b3f9a31f)" style="fill: #0000ff; fill-opacity: 0.75; stroke: #ffffff; stroke-width: 0.461157; stroke-linejoin: miter"/>
   </g>
   <g id="patch_25">
    <path d="M 189.651989 164.46875 
L 195.339321 164.46875 
L 195.339321 132.132274 
L 189.651989 132.132274 
z
" clip-path="url(#pe0b3f9a31f)" style="fill: #0000ff; fill-opacity: 0.75; stroke: #ffffff; stroke-width: 0.461157; stroke-linejoin: miter"/>
   </g>
   <g id="patch_26">
    <path d="M 195.339321 164.46875 
L 201.026654 164.46875 
L 201.026654 134.82698 
L 195.339321 134.82698 
z
" clip-path="url(#pe0b3f9a31f)" style="fill: #0000ff; fill-opacity: 0.75; stroke: #ffffff; stroke-width: 0.461157; stroke-linejoin: miter"/>
   </g>
   <g id="patch_27">
    <path d="M 201.026654 164.46875 
L 206.713986 164.46875 
L 206.713986 133.816465 
L 201.026654 133.816465 
z
" clip-path="url(#pe0b3f9a31f)" style="fill: #0000ff; fill-opacity: 0.75; stroke: #ffffff; stroke-width: 0.461157; stroke-linejoin: miter"/>
   </g>
   <g id="patch_28">
    <path d="M 206.713986 164.46875 
L 212.401319 164.46875 
L 212.401319 136.174333 
L 206.713986 136.174333 
z
" clip-path="url(#pe0b3f9a31f)" style="fill: #0000ff; fill-opacity: 0.75; stroke: #ffffff; stroke-width: 0.461157; stroke-linejoin: miter"/>
   </g>
   <g id="patch_29">
    <path d="M 212.401319 164.46875 
L 218.088651 164.46875 
L 218.088651 142.574261 
L 212.401319 142.574261 
z
" clip-path="url(#pe0b3f9a31f)" style="fill: #0000ff; fill-opacity: 0.75; stroke: #ffffff; stroke-width: 0.461157; stroke-linejoin: miter"/>
   </g>
   <g id="patch_30">
    <path d="M 218.088651 164.46875 
L 223.775984 164.46875 
L 223.775984 142.237422 
L 218.088651 142.237422 
z
" clip-path="url(#pe0b3f9a31f)" style="fill: #0000ff; fill-opacity: 0.75; stroke: #ffffff; stroke-width: 0.461157; stroke-linejoin: miter"/>
   </g>
   <g id="patch_31">
    <path d="M 223.775984 164.46875 
L 229.463316 164.46875 
L 229.463316 147.289997 
L 223.775984 147.289997 
z
" clip-path="url(#pe0b3f9a31f)" style="fill: #0000ff; fill-opacity: 0.75; stroke: #ffffff; stroke-width: 0.461157; stroke-linejoin: miter"/>
   </g>
   <g id="patch_32">
    <path d="M 229.463316 164.46875 
L 235.150649 164.46875 
L 235.150649 146.61632 
L 229.463316 146.61632 
z
" clip-path="url(#pe0b3f9a31f)" style="fill: #0000ff; fill-opacity: 0.75; stroke: #ffffff; stroke-width: 0.461157; stroke-linejoin: miter"/>
   </g>
   <g id="patch_33">
    <path d="M 235.150649 164.46875 
L 240.837981 164.46875 
L 240.837981 151.332056 
L 235.150649 151.332056 
z
" clip-path="url(#pe0b3f9a31f)" style="fill: #0000ff; fill-opacity: 0.75; stroke: #ffffff; stroke-width: 0.461157; stroke-linejoin: miter"/>
   </g>
   <g id="patch_34">
    <path d="M 240.837981 164.46875 
L 246.525314 164.46875 
L 246.525314 149.647865 
L 240.837981 149.647865 
z
" clip-path="url(#pe0b3f9a31f)" style="fill: #0000ff; fill-opacity: 0.75; stroke: #ffffff; stroke-width: 0.461157; stroke-linejoin: miter"/>
   </g>
   <g id="patch_35">
    <path d="M 246.525314 164.46875 
L 252.212646 164.46875 
L 252.212646 154.026763 
L 246.525314 154.026763 
z
" clip-path="url(#pe0b3f9a31f)" style="fill: #0000ff; fill-opacity: 0.75; stroke: #ffffff; stroke-width: 0.461157; stroke-linejoin: miter"/>
   </g>
   <g id="patch_36">
    <path d="M 252.212646 164.46875 
L 257.899978 164.46875 
L 257.899978 154.026763 
L 252.212646 154.026763 
z
" clip-path="url(#pe0b3f9a31f)" style="fill: #0000ff; fill-opacity: 0.75; stroke: #ffffff; stroke-width: 0.461157; stroke-linejoin: miter"/>
   </g>
   <g id="patch_37">
    <path d="M 257.899978 164.46875 
L 263.587311 164.46875 
L 263.587311 155.374116 
L 257.899978 155.374116 
z
" clip-path="url(#pe0b3f9a31f)" style="fill: #0000ff; fill-opacity: 0.75; stroke: #ffffff; stroke-width: 0.461157; stroke-linejoin: miter"/>
   </g>
   <g id="patch_38">
    <path d="M 263.587311 164.46875 
L 269.274643 164.46875 
L 269.274643 158.742499 
L 263.587311 158.742499 
z
" clip-path="url(#pe0b3f9a31f)" style="fill: #0000ff; fill-opacity: 0.75; stroke: #ffffff; stroke-width: 0.461157; stroke-linejoin: miter"/>
   </g>
   <g id="patch_39">
    <path d="M 269.274643 164.46875 
L 274.961976 164.46875 
L 274.961976 158.068822 
L 269.274643 158.068822 
z
" clip-path="url(#pe0b3f9a31f)" style="fill: #0000ff; fill-opacity: 0.75; stroke: #ffffff; stroke-width: 0.461157; stroke-linejoin: miter"/>
   </g>
   <g id="patch_40">
    <path d="M 274.961976 164.46875 
L 280.649308 164.46875 
L 280.649308 159.079337 
L 274.961976 159.079337 
z
" clip-path="url(#pe0b3f9a31f)" style="fill: #0000ff; fill-opacity: 0.75; stroke: #ffffff; stroke-width: 0.461157; stroke-linejoin: miter"/>
   </g>
   <g id="patch_41">
    <path d="M 280.649308 164.46875 
L 286.336641 164.46875 
L 286.336641 157.731984 
L 280.649308 157.731984 
z
" clip-path="url(#pe0b3f9a31f)" style="fill: #0000ff; fill-opacity: 0.75; stroke: #ffffff; stroke-width: 0.461157; stroke-linejoin: miter"/>
   </g>
   <g id="patch_42">
    <path d="M 286.336641 164.46875 
L 292.023973 164.46875 
L 292.023973 156.721469 
L 286.336641 156.721469 
z
" clip-path="url(#pe0b3f9a31f)" style="fill: #0000ff; fill-opacity: 0.75; stroke: #ffffff; stroke-width: 0.461157; stroke-linejoin: miter"/>
   </g>
   <g id="patch_43">
    <path d="M 292.023973 164.46875 
L 297.711306 164.46875 
L 297.711306 158.742499 
L 292.023973 158.742499 
z
" clip-path="url(#pe0b3f9a31f)" style="fill: #0000ff; fill-opacity: 0.75; stroke: #ffffff; stroke-width: 0.461157; stroke-linejoin: miter"/>
   </g>
   <g id="patch_44">
    <path d="M 297.711306 164.46875 
L 303.398638 164.46875 
L 303.398638 159.753014 
L 297.711306 159.753014 
z
" clip-path="url(#pe0b3f9a31f)" style="fill: #0000ff; fill-opacity: 0.75; stroke: #ffffff; stroke-width: 0.461157; stroke-linejoin: miter"/>
   </g>
   <g id="patch_45">
    <path d="M 303.398638 164.46875 
L 309.085971 164.46875 
L 309.085971 159.753014 
L 303.398638 159.753014 
z
" clip-path="url(#pe0b3f9a31f)" style="fill: #0000ff; fill-opacity: 0.75; stroke: #ffffff; stroke-width: 0.461157; stroke-linejoin: miter"/>
   </g>
   <g id="patch_46">
    <path d="M 309.085971 164.46875 
L 314.773303 164.46875 
L 314.773303 161.774044 
L 309.085971 161.774044 
z
" clip-path="url(#pe0b3f9a31f)" style="fill: #0000ff; fill-opacity: 0.75; stroke: #ffffff; stroke-width: 0.461157; stroke-linejoin: miter"/>
   </g>
   <g id="patch_47">
    <path d="M 314.773303 164.46875 
L 320.460635 164.46875 
L 320.460635 160.42669 
L 314.773303 160.42669 
z
" clip-path="url(#pe0b3f9a31f)" style="fill: #0000ff; fill-opacity: 0.75; stroke: #ffffff; stroke-width: 0.461157; stroke-linejoin: miter"/>
   </g>
   <g id="patch_48">
    <path d="M 320.460635 164.46875 
L 326.147968 164.46875 
L 326.147968 161.437205 
L 320.460635 161.437205 
z
" clip-path="url(#pe0b3f9a31f)" style="fill: #0000ff; fill-opacity: 0.75; stroke: #ffffff; stroke-width: 0.461157; stroke-linejoin: miter"/>
   </g>
   <g id="patch_49">
    <path d="M 326.147968 164.46875 
L 331.8353 164.46875 
L 331.8353 162.110882 
L 326.147968 162.110882 
z
" clip-path="url(#pe0b3f9a31f)" style="fill: #0000ff; fill-opacity: 0.75; stroke: #ffffff; stroke-width: 0.461157; stroke-linejoin: miter"/>
   </g>
   <g id="patch_50">
    <path d="M 331.8353 164.46875 
L 337.522633 164.46875 
L 337.522633 161.437205 
L 331.8353 161.437205 
z
" clip-path="url(#pe0b3f9a31f)" style="fill: #0000ff; fill-opacity: 0.75; stroke: #ffffff; stroke-width: 0.461157; stroke-linejoin: miter"/>
   </g>
   <g id="patch_51">
    <path d="M 337.522633 164.46875 
L 343.209965 164.46875 
L 343.209965 161.774044 
L 337.522633 161.774044 
z
" clip-path="url(#pe0b3f9a31f)" style="fill: #0000ff; fill-opacity: 0.75; stroke: #ffffff; stroke-width: 0.461157; stroke-linejoin: miter"/>
   </g>
   <g id="patch_52">
    <path d="M 343.209965 164.46875 
L 348.897298 164.46875 
L 348.897298 158.742499 
L 343.209965 158.742499 
z
" clip-path="url(#pe0b3f9a31f)" style="fill: #0000ff; fill-opacity: 0.75; stroke: #ffffff; stroke-width: 0.461157; stroke-linejoin: miter"/>
   </g>
   <g id="patch_53">
    <path d="M 50.312344 164.46875 
L 50.312344 21.935625 
" style="fill: none; stroke: #262626; stroke-width: 1.25; stroke-linejoin: miter; stroke-linecap: square"/>
   </g>
   <g id="patch_54">
    <path d="M 50.312344 164.46875 
L 363.115629 164.46875 
" style="fill: none; stroke: #262626; stroke-width: 1.25; stroke-linejoin: miter; stroke-linecap: square"/>
   </g>
   <g id="text_14">
    <!-- Age distribution for males -->
    <g style="fill: #262626" transform="translate(139.018986 15.935625)scale(0.12 -0.12)">
     <defs>
      <path id="ArialMT-41" d="M -9 0 
L 1750 4581 
L 2403 4581 
L 4278 0 
L 3588 0 
L 3053 1388 
L 1138 1388 
L 634 0 
L -9 0 
z
M 1313 1881 
L 2866 1881 
L 2388 3150 
Q 2169 3728 2063 4100 
Q 1975 3659 1816 3225 
L 1313 1881 
z
" transform="scale(0.015625)"/>
      <path id="ArialMT-64" d="M 2575 0 
L 2575 419 
Q 2259 -75 1647 -75 
Q 1250 -75 917 144 
Q 584 363 401 755 
Q 219 1147 219 1656 
Q 219 2153 384 2558 
Q 550 2963 881 3178 
Q 1213 3394 1622 3394 
Q 1922 3394 2156 3267 
Q 2391 3141 2538 2938 
L 2538 4581 
L 3097 4581 
L 3097 0 
L 2575 0 
z
M 797 1656 
Q 797 1019 1065 703 
Q 1334 388 1700 388 
Q 2069 388 2326 689 
Q 2584 991 2584 1609 
Q 2584 2291 2321 2609 
Q 2059 2928 1675 2928 
Q 1300 2928 1048 2622 
Q 797 2316 797 1656 
z
" transform="scale(0.015625)"/>
      <path id="ArialMT-74" d="M 1650 503 
L 1731 6 
Q 1494 -44 1306 -44 
Q 1000 -44 831 53 
Q 663 150 594 308 
Q 525 466 525 972 
L 525 2881 
L 113 2881 
L 113 3319 
L 525 3319 
L 525 4141 
L 1084 4478 
L 1084 3319 
L 1650 3319 
L 1650 2881 
L 1084 2881 
L 1084 941 
Q 1084 700 1114 631 
Q 1144 563 1211 522 
Q 1278 481 1403 481 
Q 1497 481 1650 503 
z
" transform="scale(0.015625)"/>
      <path id="ArialMT-6c" d="M 409 0 
L 409 4581 
L 972 4581 
L 972 0 
L 409 0 
z
" transform="scale(0.015625)"/>
     </defs>
     <use xlink:href="#ArialMT-41"/>
     <use xlink:href="#ArialMT-67" x="66.699219"/>
     <use xlink:href="#ArialMT-65" x="122.314453"/>
     <use xlink:href="#ArialMT-20" x="177.929688"/>
     <use xlink:href="#ArialMT-64" x="205.712891"/>
     <use xlink:href="#ArialMT-69" x="261.328125"/>
     <use xlink:href="#ArialMT-73" x="283.544922"/>
     <use xlink:href="#ArialMT-74" x="333.544922"/>
     <use xlink:href="#ArialMT-72" x="361.328125"/>
     <use xlink:href="#ArialMT-69" x="394.628906"/>
     <use xlink:href="#ArialMT-62" x="416.845703"/>
     <use xlink:href="#ArialMT-75" x="472.460938"/>
     <use xlink:href="#ArialMT-74" x="528.076172"/>
     <use xlink:href="#ArialMT-69" x="555.859375"/>
     <use xlink:href="#ArialMT-6f" x="578.076172"/>
     <use xlink:href="#ArialMT-6e" x="633.691406"/>
     <use xlink:href="#ArialMT-20" x="689.306641"/>
     <use xlink:href="#ArialMT-66" x="717.089844"/>
     <use xlink:href="#ArialMT-6f" x="744.873047"/>
     <use xlink:href="#ArialMT-72" x="800.488281"/>
     <use xlink:href="#ArialMT-20" x="833.789062"/>
     <use xlink:href="#ArialMT-6d" x="861.572266"/>
     <use xlink:href="#ArialMT-61" x="944.873047"/>
     <use xlink:href="#ArialMT-6c" x="1000.488281"/>
     <use xlink:href="#ArialMT-65" x="1022.705078"/>
     <use xlink:href="#ArialMT-73" x="1078.320312"/>
    </g>
   </g>
  </g>
  <g id="axes_2">
   <g id="patch_55">
    <path d="M 385.894844 164.46875 
L 698.698129 164.46875 
L 698.698129 21.935625 
L 385.894844 21.935625 
z
" style="fill: #ffffff"/>
   </g>
   <g id="matplotlib.axis_3">
    <g id="xtick_7">
     <g id="line2d_12">
      <g>
       <use xlink:href="#m97b86d2832" x="411.48784" y="164.46875" style="fill: #262626; stroke: #262626; stroke-width: 1.25"/>
      </g>
     </g>
     <g id="text_15">
      <!-- 20 -->
      <g style="fill: #262626" transform="translate(405.370809 181.842344)scale(0.11 -0.11)">
       <use xlink:href="#ArialMT-32"/>
       <use xlink:href="#ArialMT-30" x="55.615234"/>
      </g>
     </g>
    </g>
    <g id="xtick_8">
     <g id="line2d_13">
      <g>
       <use xlink:href="#m97b86d2832" x="468.361164" y="164.46875" style="fill: #262626; stroke: #262626; stroke-width: 1.25"/>
      </g>
     </g>
     <g id="text_16">
      <!-- 30 -->
      <g style="fill: #262626" transform="translate(462.244133 181.842344)scale(0.11 -0.11)">
       <use xlink:href="#ArialMT-33"/>
       <use xlink:href="#ArialMT-30" x="55.615234"/>
      </g>
     </g>
    </g>
    <g id="xtick_9">
     <g id="line2d_14">
      <g>
       <use xlink:href="#m97b86d2832" x="525.234489" y="164.46875" style="fill: #262626; stroke: #262626; stroke-width: 1.25"/>
      </g>
     </g>
     <g id="text_17">
      <!-- 40 -->
      <g style="fill: #262626" transform="translate(519.117458 181.842344)scale(0.11 -0.11)">
       <use xlink:href="#ArialMT-34"/>
       <use xlink:href="#ArialMT-30" x="55.615234"/>
      </g>
     </g>
    </g>
    <g id="xtick_10">
     <g id="line2d_15">
      <g>
       <use xlink:href="#m97b86d2832" x="582.107814" y="164.46875" style="fill: #262626; stroke: #262626; stroke-width: 1.25"/>
      </g>
     </g>
     <g id="text_18">
      <!-- 50 -->
      <g style="fill: #262626" transform="translate(575.990782 181.842344)scale(0.11 -0.11)">
       <use xlink:href="#ArialMT-35"/>
       <use xlink:href="#ArialMT-30" x="55.615234"/>
      </g>
     </g>
    </g>
    <g id="xtick_11">
     <g id="line2d_16">
      <g>
       <use xlink:href="#m97b86d2832" x="638.981138" y="164.46875" style="fill: #262626; stroke: #262626; stroke-width: 1.25"/>
      </g>
     </g>
     <g id="text_19">
      <!-- 60 -->
      <g style="fill: #262626" transform="translate(632.864107 181.842344)scale(0.11 -0.11)">
       <use xlink:href="#ArialMT-36"/>
       <use xlink:href="#ArialMT-30" x="55.615234"/>
      </g>
     </g>
    </g>
    <g id="xtick_12">
     <g id="line2d_17">
      <g>
       <use xlink:href="#m97b86d2832" x="695.854463" y="164.46875" style="fill: #262626; stroke: #262626; stroke-width: 1.25"/>
      </g>
     </g>
     <g id="text_20">
      <!-- 70 -->
      <g style="fill: #262626" transform="translate(689.737431 181.842344)scale(0.11 -0.11)">
       <use xlink:href="#ArialMT-37"/>
       <use xlink:href="#ArialMT-30" x="55.615234"/>
      </g>
     </g>
    </g>
    <g id="text_21">
     <!-- age -->
     <g style="fill: #262626" transform="translate(532.286799 196.477344)scale(0.12 -0.12)">
      <use xlink:href="#ArialMT-61"/>
      <use xlink:href="#ArialMT-67" x="55.615234"/>
      <use xlink:href="#ArialMT-65" x="111.230469"/>
     </g>
    </g>
   </g>
   <g id="matplotlib.axis_4">
    <g id="ytick_6">
     <g id="line2d_18">
      <g>
       <use xlink:href="#m26ea45029b" x="385.894844" y="164.46875" style="fill: #262626; stroke: #262626; stroke-width: 1.25"/>
      </g>
     </g>
    </g>
    <g id="ytick_7">
     <g id="line2d_19">
      <g>
       <use xlink:href="#m26ea45029b" x="385.894844" y="130.78492" style="fill: #262626; stroke: #262626; stroke-width: 1.25"/>
      </g>
     </g>
    </g>
    <g id="ytick_8">
     <g id="line2d_20">
      <g>
       <use xlink:href="#m26ea45029b" x="385.894844" y="97.101091" style="fill: #262626; stroke: #262626; stroke-width: 1.25"/>
      </g>
     </g>
    </g>
    <g id="ytick_9">
     <g id="line2d_21">
      <g>
       <use xlink:href="#m26ea45029b" x="385.894844" y="63.417261" style="fill: #262626; stroke: #262626; stroke-width: 1.25"/>
      </g>
     </g>
    </g>
    <g id="ytick_10">
     <g id="line2d_22">
      <g>
       <use xlink:href="#m26ea45029b" x="385.894844" y="29.733432" style="fill: #262626; stroke: #262626; stroke-width: 1.25"/>
      </g>
     </g>
    </g>
   </g>
   <g id="patch_56">
    <path d="M 400.113175 164.46875 
L 405.800507 164.46875 
L 405.800507 152.67941 
L 400.113175 152.67941 
z
" clip-path="url(#pd21ae22745)" style="fill: #ff0000; fill-opacity: 0.75; stroke: #ffffff; stroke-width: 0.461157; stroke-linejoin: miter"/>
   </g>
   <g id="patch_57">
    <path d="M 405.800507 164.46875 
L 411.48784 164.46875 
L 411.48784 144.258452 
L 405.800507 144.258452 
z
" clip-path="url(#pd21ae22745)" style="fill: #ff0000; fill-opacity: 0.75; stroke: #ffffff; stroke-width: 0.461157; stroke-linejoin: miter"/>
   </g>
   <g id="patch_58">
    <path d="M 411.48784 164.46875 
L 417.175172 164.46875 
L 417.175172 141.226908 
L 411.48784 141.226908 
z
" clip-path="url(#pd21ae22745)" style="fill: #ff0000; fill-opacity: 0.75; stroke: #ffffff; stroke-width: 0.461157; stroke-linejoin: miter"/>
   </g>
   <g id="patch_59">
    <path d="M 417.175172 164.46875 
L 422.862505 164.46875 
L 422.862505 131.458597 
L 417.175172 131.458597 
z
" clip-path="url(#pd21ae22745)" style="fill: #ff0000; fill-opacity: 0.75; stroke: #ffffff; stroke-width: 0.461157; stroke-linejoin: miter"/>
   </g>
   <g id="patch_60">
    <path d="M 422.862505 164.46875 
L 428.549837 164.46875 
L 428.549837 112.258814 
L 422.862505 112.258814 
z
" clip-path="url(#pd21ae22745)" style="fill: #ff0000; fill-opacity: 0.75; stroke: #ffffff; stroke-width: 0.461157; stroke-linejoin: miter"/>
   </g>
   <g id="patch_61">
    <path d="M 428.549837 164.46875 
L 434.23717 164.46875 
L 434.23717 97.774767 
L 428.549837 97.774767 
z
" clip-path="url(#pd21ae22745)" style="fill: #ff0000; fill-opacity: 0.75; stroke: #ffffff; stroke-width: 0.461157; stroke-linejoin: miter"/>
   </g>
   <g id="patch_62">
    <path d="M 434.23717 164.46875 
L 439.924502 164.46875 
L 439.924502 87.669618 
L 434.23717 87.669618 
z
" clip-path="url(#pd21ae22745)" style="fill: #ff0000; fill-opacity: 0.75; stroke: #ffffff; stroke-width: 0.461157; stroke-linejoin: miter"/>
   </g>
   <g id="patch_63">
    <path d="M 439.924502 164.46875 
L 445.611835 164.46875 
L 445.611835 84.301236 
L 439.924502 84.301236 
z
" clip-path="url(#pd21ae22745)" style="fill: #ff0000; fill-opacity: 0.75; stroke: #ffffff; stroke-width: 0.461157; stroke-linejoin: miter"/>
   </g>
   <g id="patch_64">
    <path d="M 445.611835 164.46875 
L 451.299167 164.46875 
L 451.299167 81.606529 
L 445.611835 81.606529 
z
" clip-path="url(#pd21ae22745)" style="fill: #ff0000; fill-opacity: 0.75; stroke: #ffffff; stroke-width: 0.461157; stroke-linejoin: miter"/>
   </g>
   <g id="patch_65">
    <path d="M 451.299167 164.46875 
L 456.986499 164.46875 
L 456.986499 90.027487 
L 451.299167 90.027487 
z
" clip-path="url(#pd21ae22745)" style="fill: #ff0000; fill-opacity: 0.75; stroke: #ffffff; stroke-width: 0.461157; stroke-linejoin: miter"/>
   </g>
   <g id="patch_66">
    <path d="M 456.986499 164.46875 
L 462.673832 164.46875 
L 462.673832 89.690648 
L 456.986499 89.690648 
z
" clip-path="url(#pd21ae22745)" style="fill: #ff0000; fill-opacity: 0.75; stroke: #ffffff; stroke-width: 0.461157; stroke-linejoin: miter"/>
   </g>
   <g id="patch_67">
    <path d="M 462.673832 164.46875 
L 468.361164 164.46875 
L 468.361164 91.038001 
L 462.673832 91.038001 
z
" clip-path="url(#pd21ae22745)" style="fill: #ff0000; fill-opacity: 0.75; stroke: #ffffff; stroke-width: 0.461157; stroke-linejoin: miter"/>
   </g>
   <g id="patch_68">
    <path d="M 468.361164 164.46875 
L 474.048497 164.46875 
L 474.048497 108.553593 
L 468.361164 108.553593 
z
" clip-path="url(#pd21ae22745)" style="fill: #ff0000; fill-opacity: 0.75; stroke: #ffffff; stroke-width: 0.461157; stroke-linejoin: miter"/>
   </g>
   <g id="patch_69">
    <path d="M 474.048497 164.46875 
L 479.735829 164.46875 
L 479.735829 102.827342 
L 474.048497 102.827342 
z
" clip-path="url(#pd21ae22745)" style="fill: #ff0000; fill-opacity: 0.75; stroke: #ffffff; stroke-width: 0.461157; stroke-linejoin: miter"/>
   </g>
   <g id="patch_70">
    <path d="M 479.735829 164.46875 
L 485.423162 164.46875 
L 485.423162 113.943006 
L 479.735829 113.943006 
z
" clip-path="url(#pd21ae22745)" style="fill: #ff0000; fill-opacity: 0.75; stroke: #ffffff; stroke-width: 0.461157; stroke-linejoin: miter"/>
   </g>
   <g id="patch_71">
    <path d="M 485.423162 164.46875 
L 491.110494 164.46875 
L 491.110494 120.342933 
L 485.423162 120.342933 
z
" clip-path="url(#pd21ae22745)" style="fill: #ff0000; fill-opacity: 0.75; stroke: #ffffff; stroke-width: 0.461157; stroke-linejoin: miter"/>
   </g>
   <g id="patch_72">
    <path d="M 491.110494 164.46875 
L 496.797827 164.46875 
L 496.797827 123.374478 
L 491.110494 123.374478 
z
" clip-path="url(#pd21ae22745)" style="fill: #ff0000; fill-opacity: 0.75; stroke: #ffffff; stroke-width: 0.461157; stroke-linejoin: miter"/>
   </g>
   <g id="patch_73">
    <path d="M 496.797827 164.46875 
L 502.485159 164.46875 
L 502.485159 127.079699 
L 496.797827 127.079699 
z
" clip-path="url(#pd21ae22745)" style="fill: #ff0000; fill-opacity: 0.75; stroke: #ffffff; stroke-width: 0.461157; stroke-linejoin: miter"/>
   </g>
   <g id="patch_74">
    <path d="M 502.485159 164.46875 
L 508.172492 164.46875 
L 508.172492 133.816465 
L 502.485159 133.816465 
z
" clip-path="url(#pd21ae22745)" style="fill: #ff0000; fill-opacity: 0.75; stroke: #ffffff; stroke-width: 0.461157; stroke-linejoin: miter"/>
   </g>
   <g id="patch_75">
    <path d="M 508.172492 164.46875 
L 513.859824 164.46875 
L 513.859824 130.111244 
L 508.172492 130.111244 
z
" clip-path="url(#pd21ae22745)" style="fill: #ff0000; fill-opacity: 0.75; stroke: #ffffff; stroke-width: 0.461157; stroke-linejoin: miter"/>
   </g>
   <g id="patch_76">
    <path d="M 513.859824 164.46875 
L 519.547156 164.46875 
L 519.547156 135.163818 
L 513.859824 135.163818 
z
" clip-path="url(#pd21ae22745)" style="fill: #ff0000; fill-opacity: 0.75; stroke: #ffffff; stroke-width: 0.461157; stroke-linejoin: miter"/>
   </g>
   <g id="patch_77">
    <path d="M 519.547156 164.46875 
L 525.234489 164.46875 
L 525.234489 136.511171 
L 519.547156 136.511171 
z
" clip-path="url(#pd21ae22745)" style="fill: #ff0000; fill-opacity: 0.75; stroke: #ffffff; stroke-width: 0.461157; stroke-linejoin: miter"/>
   </g>
   <g id="patch_78">
    <path d="M 525.234489 164.46875 
L 530.921821 164.46875 
L 530.921821 136.84801 
L 525.234489 136.84801 
z
" clip-path="url(#pd21ae22745)" style="fill: #ff0000; fill-opacity: 0.75; stroke: #ffffff; stroke-width: 0.461157; stroke-linejoin: miter"/>
   </g>
   <g id="patch_79">
    <path d="M 530.921821 164.46875 
L 536.609154 164.46875 
L 536.609154 139.542716 
L 530.921821 139.542716 
z
" clip-path="url(#pd21ae22745)" style="fill: #ff0000; fill-opacity: 0.75; stroke: #ffffff; stroke-width: 0.461157; stroke-linejoin: miter"/>
   </g>
   <g id="patch_80">
    <path d="M 536.609154 164.46875 
L 542.296486 164.46875 
L 542.296486 138.195363 
L 536.609154 138.195363 
z
" clip-path="url(#pd21ae22745)" style="fill: #ff0000; fill-opacity: 0.75; stroke: #ffffff; stroke-width: 0.461157; stroke-linejoin: miter"/>
   </g>
   <g id="patch_81">
    <path d="M 542.296486 164.46875 
L 547.983819 164.46875 
L 547.983819 145.605805 
L 542.296486 145.605805 
z
" clip-path="url(#pd21ae22745)" style="fill: #ff0000; fill-opacity: 0.75; stroke: #ffffff; stroke-width: 0.461157; stroke-linejoin: miter"/>
   </g>
   <g id="patch_82">
    <path d="M 547.983819 164.46875 
L 553.671151 164.46875 
L 553.671151 148.974188 
L 547.983819 148.974188 
z
" clip-path="url(#pd21ae22745)" style="fill: #ff0000; fill-opacity: 0.75; stroke: #ffffff; stroke-width: 0.461157; stroke-linejoin: miter"/>
   </g>
   <g id="patch_83">
    <path d="M 553.671151 164.46875 
L 559.358484 164.46875 
L 559.358484 150.65838 
L 553.671151 150.65838 
z
" clip-path="url(#pd21ae22745)" style="fill: #ff0000; fill-opacity: 0.75; stroke: #ffffff; stroke-width: 0.461157; stroke-linejoin: miter"/>
   </g>
   <g id="patch_84">
    <path d="M 559.358484 164.46875 
L 565.045816 164.46875 
L 565.045816 149.984703 
L 559.358484 149.984703 
z
" clip-path="url(#pd21ae22745)" style="fill: #ff0000; fill-opacity: 0.75; stroke: #ffffff; stroke-width: 0.461157; stroke-linejoin: miter"/>
   </g>
   <g id="patch_85">
    <path d="M 565.045816 164.46875 
L 570.733149 164.46875 
L 570.733149 154.363601 
L 565.045816 154.363601 
z
" clip-path="url(#pd21ae22745)" style="fill: #ff0000; fill-opacity: 0.75; stroke: #ffffff; stroke-width: 0.461157; stroke-linejoin: miter"/>
   </g>
   <g id="patch_86">
    <path d="M 570.733149 164.46875 
L 576.420481 164.46875 
L 576.420481 154.363601 
L 570.733149 154.363601 
z
" clip-path="url(#pd21ae22745)" style="fill: #ff0000; fill-opacity: 0.75; stroke: #ffffff; stroke-width: 0.461157; stroke-linejoin: miter"/>
   </g>
   <g id="patch_87">
    <path d="M 576.420481 164.46875 
L 582.107814 164.46875 
L 582.107814 154.363601 
L 576.420481 154.363601 
z
" clip-path="url(#pd21ae22745)" style="fill: #ff0000; fill-opacity: 0.75; stroke: #ffffff; stroke-width: 0.461157; stroke-linejoin: miter"/>
   </g>
   <g id="patch_88">
    <path d="M 582.107814 164.46875 
L 587.795146 164.46875 
L 587.795146 153.353086 
L 582.107814 153.353086 
z
" clip-path="url(#pd21ae22745)" style="fill: #ff0000; fill-opacity: 0.75; stroke: #ffffff; stroke-width: 0.461157; stroke-linejoin: miter"/>
   </g>
   <g id="patch_89">
    <path d="M 587.795146 164.46875 
L 593.482478 164.46875 
L 593.482478 157.395146 
L 587.795146 157.395146 
z
" clip-path="url(#pd21ae22745)" style="fill: #ff0000; fill-opacity: 0.75; stroke: #ffffff; stroke-width: 0.461157; stroke-linejoin: miter"/>
   </g>
   <g id="patch_90">
    <path d="M 593.482478 164.46875 
L 599.169811 164.46875 
L 599.169811 154.363601 
L 593.482478 154.363601 
z
" clip-path="url(#pd21ae22745)" style="fill: #ff0000; fill-opacity: 0.75; stroke: #ffffff; stroke-width: 0.461157; stroke-linejoin: miter"/>
   </g>
   <g id="patch_91">
    <path d="M 599.169811 164.46875 
L 604.857143 164.46875 
L 604.857143 157.058307 
L 599.169811 157.058307 
z
" clip-path="url(#pd21ae22745)" style="fill: #ff0000; fill-opacity: 0.75; stroke: #ffffff; stroke-width: 0.461157; stroke-linejoin: miter"/>
   </g>
   <g id="patch_92">
    <path d="M 604.857143 164.46875 
L 610.544476 164.46875 
L 610.544476 159.416176 
L 604.857143 159.416176 
z
" clip-path="url(#pd21ae22745)" style="fill: #ff0000; fill-opacity: 0.75; stroke: #ffffff; stroke-width: 0.461157; stroke-linejoin: miter"/>
   </g>
   <g id="patch_93">
    <path d="M 610.544476 164.46875 
L 616.231808 164.46875 
L 616.231808 157.395146 
L 610.544476 157.395146 
z
" clip-path="url(#pd21ae22745)" style="fill: #ff0000; fill-opacity: 0.75; stroke: #ffffff; stroke-width: 0.461157; stroke-linejoin: miter"/>
   </g>
   <g id="patch_94">
    <path d="M 616.231808 164.46875 
L 621.919141 164.46875 
L 621.919141 157.395146 
L 616.231808 157.395146 
z
" clip-path="url(#pd21ae22745)" style="fill: #ff0000; fill-opacity: 0.75; stroke: #ffffff; stroke-width: 0.461157; stroke-linejoin: miter"/>
   </g>
   <g id="patch_95">
    <path d="M 621.919141 164.46875 
L 627.606473 164.46875 
L 627.606473 156.721469 
L 621.919141 156.721469 
z
" clip-path="url(#pd21ae22745)" style="fill: #ff0000; fill-opacity: 0.75; stroke: #ffffff; stroke-width: 0.461157; stroke-linejoin: miter"/>
   </g>
   <g id="patch_96">
    <path d="M 627.606473 164.46875 
L 633.293806 164.46875 
L 633.293806 159.753014 
L 627.606473 159.753014 
z
" clip-path="url(#pd21ae22745)" style="fill: #ff0000; fill-opacity: 0.75; stroke: #ffffff; stroke-width: 0.461157; stroke-linejoin: miter"/>
   </g>
   <g id="patch_97">
    <path d="M 633.293806 164.46875 
L 638.981138 164.46875 
L 638.981138 155.374116 
L 633.293806 155.374116 
z
" clip-path="url(#pd21ae22745)" style="fill: #ff0000; fill-opacity: 0.75; stroke: #ffffff; stroke-width: 0.461157; stroke-linejoin: miter"/>
   </g>
   <g id="patch_98">
    <path d="M 638.981138 164.46875 
L 644.668471 164.46875 
L 644.668471 158.742499 
L 638.981138 158.742499 
z
" clip-path="url(#pd21ae22745)" style="fill: #ff0000; fill-opacity: 0.75; stroke: #ffffff; stroke-width: 0.461157; stroke-linejoin: miter"/>
   </g>
   <g id="patch_99">
    <path d="M 644.668471 164.46875 
L 650.355803 164.46875 
L 650.355803 157.395146 
L 644.668471 157.395146 
z
" clip-path="url(#pd21ae22745)" style="fill: #ff0000; fill-opacity: 0.75; stroke: #ffffff; stroke-width: 0.461157; stroke-linejoin: miter"/>
   </g>
   <g id="patch_100">
    <path d="M 650.355803 164.46875 
L 656.043135 164.46875 
L 656.043135 161.100367 
L 650.355803 161.100367 
z
" clip-path="url(#pd21ae22745)" style="fill: #ff0000; fill-opacity: 0.75; stroke: #ffffff; stroke-width: 0.461157; stroke-linejoin: miter"/>
   </g>
   <g id="patch_101">
    <path d="M 656.043135 164.46875 
L 661.730468 164.46875 
L 661.730468 158.405661 
L 656.043135 158.405661 
z
" clip-path="url(#pd21ae22745)" style="fill: #ff0000; fill-opacity: 0.75; stroke: #ffffff; stroke-width: 0.461157; stroke-linejoin: miter"/>
   </g>
   <g id="patch_102">
    <path d="M 661.730468 164.46875 
L 667.4178 164.46875 
L 667.4178 161.100367 
L 661.730468 161.100367 
z
" clip-path="url(#pd21ae22745)" style="fill: #ff0000; fill-opacity: 0.75; stroke: #ffffff; stroke-width: 0.461157; stroke-linejoin: miter"/>
   </g>
   <g id="patch_103">
    <path d="M 667.4178 164.46875 
L 673.105133 164.46875 
L 673.105133 160.763529 
L 667.4178 160.763529 
z
" clip-path="url(#pd21ae22745)" style="fill: #ff0000; fill-opacity: 0.75; stroke: #ffffff; stroke-width: 0.461157; stroke-linejoin: miter"/>
   </g>
   <g id="patch_104">
    <path d="M 673.105133 164.46875 
L 678.792465 164.46875 
L 678.792465 159.753014 
L 673.105133 159.753014 
z
" clip-path="url(#pd21ae22745)" style="fill: #ff0000; fill-opacity: 0.75; stroke: #ffffff; stroke-width: 0.461157; stroke-linejoin: miter"/>
   </g>
   <g id="patch_105">
    <path d="M 678.792465 164.46875 
L 684.479798 164.46875 
L 684.479798 163.458235 
L 678.792465 163.458235 
z
" clip-path="url(#pd21ae22745)" style="fill: #ff0000; fill-opacity: 0.75; stroke: #ffffff; stroke-width: 0.461157; stroke-linejoin: miter"/>
   </g>
   <g id="patch_106">
    <path d="M 385.894844 164.46875 
L 385.894844 21.935625 
" style="fill: none; stroke: #262626; stroke-width: 1.25; stroke-linejoin: miter; stroke-linecap: square"/>
   </g>
   <g id="patch_107">
    <path d="M 385.894844 164.46875 
L 698.698129 164.46875 
" style="fill: none; stroke: #262626; stroke-width: 1.25; stroke-linejoin: miter; stroke-linecap: square"/>
   </g>
   <g id="text_22">
    <!-- Age distribution for females -->
    <g style="fill: #262626" transform="translate(469.598049 15.935625)scale(0.12 -0.12)">
     <use xlink:href="#ArialMT-41"/>
     <use xlink:href="#ArialMT-67" x="66.699219"/>
     <use xlink:href="#ArialMT-65" x="122.314453"/>
     <use xlink:href="#ArialMT-20" x="177.929688"/>
     <use xlink:href="#ArialMT-64" x="205.712891"/>
     <use xlink:href="#ArialMT-69" x="261.328125"/>
     <use xlink:href="#ArialMT-73" x="283.544922"/>
     <use xlink:href="#ArialMT-74" x="333.544922"/>
     <use xlink:href="#ArialMT-72" x="361.328125"/>
     <use xlink:href="#ArialMT-69" x="394.628906"/>
     <use xlink:href="#ArialMT-62" x="416.845703"/>
     <use xlink:href="#ArialMT-75" x="472.460938"/>
     <use xlink:href="#ArialMT-74" x="528.076172"/>
     <use xlink:href="#ArialMT-69" x="555.859375"/>
     <use xlink:href="#ArialMT-6f" x="578.076172"/>
     <use xlink:href="#ArialMT-6e" x="633.691406"/>
     <use xlink:href="#ArialMT-20" x="689.306641"/>
     <use xlink:href="#ArialMT-66" x="717.089844"/>
     <use xlink:href="#ArialMT-6f" x="744.873047"/>
     <use xlink:href="#ArialMT-72" x="800.488281"/>
     <use xlink:href="#ArialMT-20" x="833.789062"/>
     <use xlink:href="#ArialMT-66" x="861.572266"/>
     <use xlink:href="#ArialMT-65" x="889.355469"/>
     <use xlink:href="#ArialMT-6d" x="944.970703"/>
     <use xlink:href="#ArialMT-61" x="1028.271484"/>
     <use xlink:href="#ArialMT-6c" x="1083.886719"/>
     <use xlink:href="#ArialMT-65" x="1106.103516"/>
     <use xlink:href="#ArialMT-73" x="1161.71875"/>
    </g>
   </g>
  </g>
 </g>
 <defs>
  <clipPath id="pe0b3f9a31f">
   <rect x="50.312344" y="21.935625" width="312.803285" height="142.533125"/>
  </clipPath>
  <clipPath id="pd21ae22745">
   <rect x="385.894844" y="21.935625" width="312.803285" height="142.533125"/>
  </clipPath>
 </defs>
</svg>
